<svg xmlns="http://www.w3.org/2000/svg" viewBox="0 0 820 280" font-family="Arial, sans-serif">
  <rect width="820" height="280" fill="white"/>

  <!-- Title -->
  <text x="410" y="24" text-anchor="middle" font-size="15" font-weight="bold" fill="#621C37">Mann-Whitney U-Test: Rangbildung</text>

  <!-- Step labels -->
  <text x="410" y="48" text-anchor="middle" font-size="12" fill="#666">Alle Personen beider Gruppen gemeinsam nach Messwert sortieren → Rang vergeben</text>

  <!-- Values row label -->
  <text x="18" y="98" text-anchor="start" font-size="12" font-weight="bold" fill="#333">Messwert:</text>
  <text x="18" y="148" text-anchor="start" font-size="12" font-weight="bold" fill="#333">Gruppe:</text>
  <text x="18" y="198" text-anchor="start" font-size="12" font-weight="bold" fill="#333">Rang:</text>

  <!-- 18 data points (values ascending) -->
  <!-- Positions: x = 110 + i*38, i = 0..17 -->
  <!-- Values from the example: sorted order corresponds to ranks 1-18 -->
  <!-- D=Dep (burgundy), Z=Zw (pink) -->
  <!-- From the slide data: rank order is Z,Z,Z,Z,D,Z,Z,Z,D,D,Z,Z,D,Z,D,Z,D,D -->
  <!-- But let me use the actual data from the slide:
       Values D: 24,18,21,28,17,9,20,26 → ranks 15,10,13,18,9,4,12,17
       Values Z: 14,8,16,5,22,12,25,3,11,19 → ranks 7,3,8,2,14,6,16,1,5,11
       So sorted ascending:
       3(Z),5(Z),8(Z),9(D),11(Z),12(Z),14(Z),16(Z),17(D),18(D),19(Z),20(D),21(D),22(Z),24(D),25(Z),26(D),28(D) -->

  <!-- I'll show 18 blocks with their group colors -->
  <!-- x positions: 110, 148, 186, 224, 262, 300, 338, 376, 414, 452, 490, 528, 566, 604, 642, 680, 718, 756 -->

  <!-- Helper: define group colors in the blocks -->
  <!-- Rank 1: Z=pink, rank 2: Z, rank 3: Z, rank 4: D=burgundy, rank 5: Z, rank 6: Z, rank 7: Z, rank 8: Z, rank 9: D, rank 10: D, rank 11: Z, rank 12: D, rank 13: D, rank 14: Z, rank 15: D, rank 16: Z, rank 17: D, rank 18: D -->

  <!-- Values row -->
  <text x="110" y="98" text-anchor="middle" font-size="11" fill="#333">3</text>
  <text x="148" y="98" text-anchor="middle" font-size="11" fill="#333">5</text>
  <text x="186" y="98" text-anchor="middle" font-size="11" fill="#333">8</text>
  <text x="224" y="98" text-anchor="middle" font-size="11" fill="#333">9</text>
  <text x="262" y="98" text-anchor="middle" font-size="11" fill="#333">11</text>
  <text x="300" y="98" text-anchor="middle" font-size="11" fill="#333">12</text>
  <text x="338" y="98" text-anchor="middle" font-size="11" fill="#333">14</text>
  <text x="376" y="98" text-anchor="middle" font-size="11" fill="#333">16</text>
  <text x="414" y="98" text-anchor="middle" font-size="11" fill="#333">17</text>
  <text x="452" y="98" text-anchor="middle" font-size="11" fill="#333">18</text>
  <text x="490" y="98" text-anchor="middle" font-size="11" fill="#333">19</text>
  <text x="528" y="98" text-anchor="middle" font-size="11" fill="#333">20</text>
  <text x="566" y="98" text-anchor="middle" font-size="11" fill="#333">21</text>
  <text x="604" y="98" text-anchor="middle" font-size="11" fill="#333">22</text>
  <text x="642" y="98" text-anchor="middle" font-size="11" fill="#333">24</text>
  <text x="680" y="98" text-anchor="middle" font-size="11" fill="#333">25</text>
  <text x="718" y="98" text-anchor="middle" font-size="11" fill="#333">26</text>
  <text x="756" y="98" text-anchor="middle" font-size="11" fill="#333">28</text>

  <!-- Group blocks (colored) -->
  <!-- Z Z Z D Z Z Z Z D D Z D D Z D Z D D -->
  <rect x="94" y="128" width="32" height="30" rx="4" fill="#EE0071"/>
  <text x="110" y="148" text-anchor="middle" font-size="12" font-weight="bold" fill="white">Z</text>
  <rect x="132" y="128" width="32" height="30" rx="4" fill="#EE0071"/>
  <text x="148" y="148" text-anchor="middle" font-size="12" font-weight="bold" fill="white">Z</text>
  <rect x="170" y="128" width="32" height="30" rx="4" fill="#EE0071"/>
  <text x="186" y="148" text-anchor="middle" font-size="12" font-weight="bold" fill="white">Z</text>
  <rect x="208" y="128" width="32" height="30" rx="4" fill="#621C37"/>
  <text x="224" y="148" text-anchor="middle" font-size="12" font-weight="bold" fill="white">D</text>
  <rect x="246" y="128" width="32" height="30" rx="4" fill="#EE0071"/>
  <text x="262" y="148" text-anchor="middle" font-size="12" font-weight="bold" fill="white">Z</text>
  <rect x="284" y="128" width="32" height="30" rx="4" fill="#EE0071"/>
  <text x="300" y="148" text-anchor="middle" font-size="12" font-weight="bold" fill="white">Z</text>
  <rect x="322" y="128" width="32" height="30" rx="4" fill="#EE0071"/>
  <text x="338" y="148" text-anchor="middle" font-size="12" font-weight="bold" fill="white">Z</text>
  <rect x="360" y="128" width="32" height="30" rx="4" fill="#EE0071"/>
  <text x="376" y="148" text-anchor="middle" font-size="12" font-weight="bold" fill="white">Z</text>
  <rect x="398" y="128" width="32" height="30" rx="4" fill="#621C37"/>
  <text x="414" y="148" text-anchor="middle" font-size="12" font-weight="bold" fill="white">D</text>
  <rect x="436" y="128" width="32" height="30" rx="4" fill="#621C37"/>
  <text x="452" y="148" text-anchor="middle" font-size="12" font-weight="bold" fill="white">D</text>
  <rect x="474" y="128" width="32" height="30" rx="4" fill="#EE0071"/>
  <text x="490" y="148" text-anchor="middle" font-size="12" font-weight="bold" fill="white">Z</text>
  <rect x="512" y="128" width="32" height="30" rx="4" fill="#621C37"/>
  <text x="528" y="148" text-anchor="middle" font-size="12" font-weight="bold" fill="white">D</text>
  <rect x="550" y="128" width="32" height="30" rx="4" fill="#621C37"/>
  <text x="566" y="148" text-anchor="middle" font-size="12" font-weight="bold" fill="white">D</text>
  <rect x="588" y="128" width="32" height="30" rx="4" fill="#EE0071"/>
  <text x="604" y="148" text-anchor="middle" font-size="12" font-weight="bold" fill="white">Z</text>
  <rect x="626" y="128" width="32" height="30" rx="4" fill="#621C37"/>
  <text x="642" y="148" text-anchor="middle" font-size="12" font-weight="bold" fill="white">D</text>
  <rect x="664" y="128" width="32" height="30" rx="4" fill="#EE0071"/>
  <text x="680" y="148" text-anchor="middle" font-size="12" font-weight="bold" fill="white">Z</text>
  <rect x="702" y="128" width="32" height="30" rx="4" fill="#621C37"/>
  <text x="718" y="148" text-anchor="middle" font-size="12" font-weight="bold" fill="white">D</text>
  <rect x="740" y="128" width="32" height="30" rx="4" fill="#621C37"/>
  <text x="756" y="148" text-anchor="middle" font-size="12" font-weight="bold" fill="white">D</text>

  <!-- Rank row -->
  <text x="110" y="198" text-anchor="middle" font-size="11" fill="#333">1.</text>
  <text x="148" y="198" text-anchor="middle" font-size="11" fill="#333">2.</text>
  <text x="186" y="198" text-anchor="middle" font-size="11" fill="#333">3.</text>
  <text x="224" y="198" text-anchor="middle" font-size="11" fill="#621C37" font-weight="bold">4.</text>
  <text x="262" y="198" text-anchor="middle" font-size="11" fill="#333">5.</text>
  <text x="300" y="198" text-anchor="middle" font-size="11" fill="#333">6.</text>
  <text x="338" y="198" text-anchor="middle" font-size="11" fill="#333">7.</text>
  <text x="376" y="198" text-anchor="middle" font-size="11" fill="#333">8.</text>
  <text x="414" y="198" text-anchor="middle" font-size="11" fill="#621C37" font-weight="bold">9.</text>
  <text x="452" y="198" text-anchor="middle" font-size="11" fill="#621C37" font-weight="bold">10.</text>
  <text x="490" y="198" text-anchor="middle" font-size="11" fill="#333">11.</text>
  <text x="528" y="198" text-anchor="middle" font-size="11" fill="#621C37" font-weight="bold">12.</text>
  <text x="566" y="198" text-anchor="middle" font-size="11" fill="#621C37" font-weight="bold">13.</text>
  <text x="604" y="198" text-anchor="middle" font-size="11" fill="#333">14.</text>
  <text x="642" y="198" text-anchor="middle" font-size="11" fill="#621C37" font-weight="bold">15.</text>
  <text x="680" y="198" text-anchor="middle" font-size="11" fill="#333">16.</text>
  <text x="718" y="198" text-anchor="middle" font-size="11" fill="#621C37" font-weight="bold">17.</text>
  <text x="756" y="198" text-anchor="middle" font-size="11" fill="#621C37" font-weight="bold">18.</text>

  <!-- Legend and note -->
  <rect x="94" y="218" width="32" height="18" rx="3" fill="#621C37"/>
  <text x="132" y="231" font-size="11" fill="#621C37" font-weight="bold">D = Depressiv</text>
  <text x="132" y="245" font-size="11" fill="#666">(T_D = 4+9+10+12+13+15+17+18 = 98)</text>
  <rect x="310" y="218" width="32" height="18" rx="3" fill="#EE0071"/>
  <text x="348" y="231" font-size="11" fill="#EE0071" font-weight="bold">Z = Zwangsstörung</text>
  <text x="348" y="245" font-size="11" fill="#666">(T_Z = 1+2+3+5+6+7+8+11+14+16 = 73)</text>
</svg>
